# xmcd
# 
# Track frame offsets:
#     150
#     15906
#     32940
#     50607
#     73136
#     86206
#     107166
#     122979
#     143087
#     174791
#     194299
#     210234
#     224936
# 
# Disc length: 3247
# 
# Revision: 2
# Processed by: cddbd v1.5.2PL0 Copyright (c) Steve Scherf et al.
# Submitted via: BonkEnc v1.0
# 
DISCID=c10cad0d
DTITLE=Beck - Guero
DYEAR=0
DGENRE=
TTITLE0=E-Pro
TTITLE1=Que Onda Guero
TTITLE2=Girl
TTITLE3=Missing
TTITLE4=Black Tambourine
TTITLE5=Earthquake Weather
TTITLE6=Hell Yeah
TTITLE7=Broken Drum
TTITLE8=Scarecrow
TTITLE9=Go It Alone
TTITLE10=Farewell Ride
TTITLE11=Rental Car
TTITLE12=Emergency Exit
EXTD=
EXTT0=
EXTT1=
EXTT2=
EXTT3=
EXTT4=
EXTT5=
EXTT6=
EXTT7=
EXTT8=
EXTT9=
EXTT10=
EXTT11=
EXTT12=
PLAYORDER=
